<?xml version="1.0" encoding="UTF-8"?>
<!DOCTYPE svg PUBLIC "-//W3C//DTD SVG 1.1//EN" "http://www.w3.org/Graphics/SVG/1.1/DTD/svg11.dtd">
<svg xmlns="http://www.w3.org/2000/svg" xmlns:xlink="http://www.w3.org/1999/xlink" version="1.1" width="361px" height="161px" viewBox="-0.5 -0.5 361 161" style="background-color: rgb(255, 255, 255);"><defs/><g><rect x="0" y="0" width="20" height="20" fill="#66b2ff" stroke="none" pointer-events="all"/><rect x="20" y="20" width="20" height="20" fill="#66b2ff" stroke="none" pointer-events="all"/><rect x="40" y="40" width="20" height="20" fill="#66b2ff" stroke="none" pointer-events="all"/><rect x="60" y="60" width="20" height="20" fill="#66b2ff" stroke="none" pointer-events="all"/><rect x="80" y="0" width="20" height="20" fill="#66b2ff" stroke="none" pointer-events="all"/><rect x="100" y="20" width="20" height="20" fill="#66b2ff" stroke="none" pointer-events="all"/><rect x="120" y="40" width="20" height="20" fill="#66b2ff" stroke="none" pointer-events="all"/><rect x="140" y="60" width="20" height="20" fill="#66b2ff" stroke="none" pointer-events="all"/><rect x="0" y="80" width="20" height="20" fill="#66b2ff" stroke="none" pointer-events="all"/><rect x="20" y="100" width="20" height="20" fill="#66b2ff" stroke="none" pointer-events="all"/><rect x="40" y="120" width="20" height="20" fill="#66b2ff" stroke="none" pointer-events="all"/><rect x="60" y="140" width="20" height="20" fill="#66b2ff" stroke="none" pointer-events="all"/><rect x="200" y="0" width="20" height="20" fill="#66b2ff" stroke="none" pointer-events="all"/><rect x="280" y="100" width="20" height="20" fill="#66b2ff" stroke="none" pointer-events="all"/><rect x="240" y="40" width="20" height="20" fill="#66b2ff" stroke="none" pointer-events="all"/><rect x="320" y="120" width="20" height="20" fill="#66b2ff" stroke="none" pointer-events="all"/><rect x="300" y="80" width="20" height="20" fill="#66b2ff" stroke="none" pointer-events="all"/><rect x="220" y="0" width="20" height="20" fill="#66b2ff" stroke="none" pointer-events="all"/><rect x="340" y="120" width="20" height="20" fill="#66b2ff" stroke="none" pointer-events="all"/><rect x="240" y="60" width="20" height="20" fill="#66b2ff" stroke="none" pointer-events="all"/><rect x="200" y="20" width="20" height="20" fill="#66b2ff" stroke="none" pointer-events="all"/><rect x="280" y="80" width="20" height="20" fill="#66b2ff" stroke="none" pointer-events="all"/><rect x="260" y="40" width="20" height="20" fill="#66b2ff" stroke="none" pointer-events="all"/><rect x="320" y="140" width="20" height="20" fill="#66b2ff" stroke="none" pointer-events="all"/><path d="M 170 80 L 183.63 80" fill="none" stroke="rgb(0, 0, 0)" stroke-miterlimit="10" pointer-events="stroke"/><path d="M 188.88 80 L 181.88 83.5 L 183.63 80 L 181.88 76.5 Z" fill="rgb(0, 0, 0)" stroke="rgb(0, 0, 0)" stroke-miterlimit="10" pointer-events="all"/><rect x="0" y="0" width="160" height="160" fill="none" stroke="rgb(0, 0, 0)" pointer-events="all"/><rect x="200" y="0" width="160" height="160" fill="none" stroke="rgb(0, 0, 0)" pointer-events="all"/></g></svg>